<?xml version="1.0" encoding="UTF-8"?>
<svg id="Layer_2" xmlns="http://www.w3.org/2000/svg" viewBox="0 0 201.5 201.5">
  <g id="Layer_1-2" data-name="Layer_1">
    <path d="M100.75,0C45.2,0,0,45.2,0,100.75s45.2,100.75,100.75,100.75,100.75-45.2,100.75-100.75S156.3,0,100.75,0ZM100.75,190c-14.08,0-27.4-3.28-39.25-9.11v-80.14c0-21.64,17.61-39.25,39.25-39.25v-11.5c-27.98,0-50.75,22.77-50.75,50.75v73.37c-4.87-3.38-9.4-7.23-13.5-11.49v-61.88c0-35.43,28.82-64.25,64.25-64.25v-11.5c-41.77,0-75.75,33.98-75.75,75.75v47.14c-8.55-13.69-13.5-29.85-13.5-47.14C11.5,51.54,51.54,11.5,100.75,11.5c14.08,0,27.4,3.28,39.25,9.11v80.14c0,21.64-17.61,39.25-39.25,39.25v11.5c27.98,0,50.75-22.77,50.75-50.75V27.38c4.87,3.38,9.4,7.23,13.5,11.49v61.88c0,35.43-28.82,64.25-64.25,64.25v11.5c41.77,0,75.75-33.98,75.75-75.75v-47.14c8.55,13.69,13.5,29.85,13.5,47.14,0,49.21-40.04,89.25-89.25,89.25Z"/>
  </g>
</svg>